<svg width="30" height="30" viewBox="0 0 30 30" fill="none" xmlns="http://www.w3.org/2000/svg">
<g clip-path="url(#clip0_658_135)">
<path d="M28.2838 29.453C28.9604 29.453 29.5138 28.8995 29.5138 28.223V1.71633C29.5138 1.03975 28.9604 0.486328 28.2838 0.486328C27.6072 0.486328 27.0538 1.03976 27.0538 1.71633V28.223C27.0538 28.8993 27.6075 29.453 28.2838 29.453Z" fill="black"/>
<path d="M3.92991 29.4528C4.60649 29.4528 5.15991 28.8993 5.15991 28.2228V22.2573C5.15991 21.5808 4.60648 21.0273 3.92991 21.0273C3.25335 21.0273 2.69991 21.5808 2.69991 22.2573V28.2228C2.76125 28.8991 3.31491 29.4528 3.92991 29.4528Z" fill="black"/>
<path d="M28.2838 29.453C28.9604 29.453 29.5138 28.8995 29.5138 28.223V1.71633C29.5138 1.03975 28.9604 0.486328 28.2838 0.486328C27.6072 0.486328 27.0538 1.03976 27.0538 1.71633V28.223C27.0538 28.8993 27.6075 29.453 28.2838 29.453Z" fill="black"/>
<path d="M17.952 8.481H28.2838C28.9604 8.481 29.5138 7.92756 29.5138 7.251C29.5138 6.57443 28.9604 6.021 28.2838 6.021H17.952C17.2754 6.021 16.722 6.57443 16.722 7.251C16.722 7.92734 17.2754 8.481 17.952 8.481Z" fill="black"/>
<path d="M9.8344 15.9839H20.1662C20.8428 15.9839 21.3962 15.4305 21.3962 14.7539C21.3962 14.0774 20.8428 13.5239 20.1662 13.5239H9.8344C9.15782 13.5239 8.6044 14.0774 8.6044 14.7539C8.6044 15.4305 9.15784 15.9839 9.8344 15.9839Z" fill="black"/>
<path d="M1.71624 23.4869H12.0481C12.7247 23.4869 13.2781 22.9334 13.2781 22.2569C13.2781 21.5803 12.7246 21.0269 12.0481 21.0269H1.71624C1.03966 21.0269 0.486238 21.5803 0.486238 22.2569C0.486238 22.9334 1.10124 23.4869 1.71624 23.4869Z" fill="black"/>
<path d="M20.1662 29.4529C20.8428 29.4529 21.3962 28.8994 21.3962 28.2229V7.31252C21.3962 6.63594 20.8428 6.08252 20.1662 6.08252C19.4897 6.08252 18.9362 6.63596 18.9362 7.31252V28.2838C18.9362 28.8988 19.4897 29.4525 20.1662 29.4525V29.4529Z" fill="black"/>
<path d="M12.0481 29.4529C12.7247 29.4529 13.2781 28.8994 13.2781 28.2229V16.1074C13.2781 15.4309 12.7246 14.8774 12.0481 14.8774C11.3715 14.8774 10.8181 15.4309 10.8181 16.1074V28.2229C10.8796 28.8992 11.3715 29.4529 12.0481 29.4529Z" fill="black"/>
</g>
<defs>
<clipPath id="clip0_658_135">
<rect width="30" height="30" fill="white" transform="matrix(-1 0 0 1 30 0)"/>
</clipPath>
</defs>
</svg>
