<svg width="30" height="30" viewBox="0 0 30 30" fill="none" xmlns="http://www.w3.org/2000/svg">
<g clip-path="url(#clip0_658_145)">
<path d="M1.71621 29.453C1.03962 29.453 0.486206 28.8995 0.486206 28.223V1.71633C0.486206 1.03975 1.03964 0.486328 1.71621 0.486328C2.39277 0.486328 2.94621 1.03976 2.94621 1.71633V28.223C2.94621 28.8993 2.39254 29.453 1.71621 29.453Z" fill="black"/>
<path d="M26.0701 29.4528C25.3935 29.4528 24.8401 28.8993 24.8401 28.2228V22.2573C24.8401 21.5808 25.3935 21.0273 26.0701 21.0273C26.7467 21.0273 27.3001 21.5808 27.3001 22.2573V28.2228C27.2387 28.8991 26.6851 29.4528 26.0701 29.4528Z" fill="black"/>
<path d="M1.71621 29.453C1.03962 29.453 0.486206 28.8995 0.486206 28.223V1.71633C0.486206 1.03975 1.03964 0.486328 1.71621 0.486328C2.39277 0.486328 2.94621 1.03976 2.94621 1.71633V28.223C2.94621 28.8993 2.39254 29.453 1.71621 29.453Z" fill="black"/>
<path d="M12.048 8.481H1.71621C1.03962 8.481 0.486206 7.92756 0.486206 7.251C0.486206 6.57443 1.03964 6.021 1.71621 6.021H12.048C12.7246 6.021 13.278 6.57443 13.278 7.251C13.278 7.92734 12.7246 8.481 12.048 8.481Z" fill="black"/>
<path d="M20.1656 15.9839H9.83376C9.15718 15.9839 8.60376 15.4305 8.60376 14.7539C8.60376 14.0774 9.15719 13.5239 9.83376 13.5239H20.1656C20.8422 13.5239 21.3956 14.0774 21.3956 14.7539C21.3956 15.4305 20.8422 15.9839 20.1656 15.9839Z" fill="black"/>
<path d="M28.2838 23.4869H17.9519C17.2753 23.4869 16.7219 22.9334 16.7219 22.2569C16.7219 21.5803 17.2754 21.0269 17.9519 21.0269H28.2838C28.9603 21.0269 29.5138 21.5803 29.5138 22.2569C29.5138 22.9334 28.8988 23.4869 28.2838 23.4869Z" fill="black"/>
<path d="M9.83376 29.4529C9.15718 29.4529 8.60376 28.8994 8.60376 28.2229V7.31252C8.60376 6.63594 9.15719 6.08252 9.83376 6.08252C10.5103 6.08252 11.0638 6.63596 11.0638 7.31252V28.2838C11.0638 28.8988 10.5103 29.4525 9.83376 29.4525V29.4529Z" fill="black"/>
<path d="M17.9519 29.4529C17.2753 29.4529 16.7219 28.8994 16.7219 28.2229V16.1074C16.7219 15.4309 17.2754 14.8774 17.9519 14.8774C18.6285 14.8774 19.1819 15.4309 19.1819 16.1074V28.2229C19.1204 28.8992 18.6285 29.4529 17.9519 29.4529Z" fill="black"/>
</g>
<defs>
<clipPath id="clip0_658_145">
<rect width="30" height="30" fill="white"/>
</clipPath>
</defs>
</svg>
